<svg xmlns="http://www.w3.org/2000/svg" width="32" height="32" viewBox="0 0 32 32">
  <g id="ruido-ovnisa-footer-icono-meli-mobile" transform="translate(-398 -3257)">
    <circle id="Ellipse_29" data-name="Ellipse 29" cx="16" cy="16" r="16" transform="translate(398 3257)" fill="#fff"/>
    <g id="mercadolibre" transform="translate(-963.712 1868.712)">
      <path id="Path_864" data-name="Path 864" d="M1389.123,1403.856c0-4.1-5.106-7.456-11.412-7.456s-11.412,3.356-11.412,7.456v.432c0,4.363,4.459,7.888,11.412,7.888a16.92,16.92,0,0,0,5.3-.8c3.82-1.251,6.113-3.955,6.113-7.092Z" transform="translate(0 0)" fill="#184092"/>
      <path id="Path_865" data-name="Path 865" d="M1390.313,1405.3c0,3.86-4.915,7-10.956,7s-10.956-3.141-10.956-7,4.915-7,10.956-7S1390.313,1401.441,1390.313,1405.3Z" transform="translate(-1.597 -1.445)" fill="#fff"/>
      <g id="Group_66" data-name="Group 66" transform="translate(1366.827 1399.108)">
        <path id="Path_866" data-name="Path 866" d="M1398.675,1410.239s-.12.12-.048.216a1.378,1.378,0,0,0,1.247.216,3.637,3.637,0,0,0,1.127-.719,4.3,4.3,0,0,1,1.295-.815,1.54,1.54,0,0,1,.935-.024,3.563,3.563,0,0,1,.863.5c.743.551,3.764,3.188,4.291,3.644a26.424,26.424,0,0,1,4.819-1.558,5.935,5.935,0,0,0-2.278-3.6,7.12,7.12,0,0,1-5.946.1,5.832,5.832,0,0,0-2.254-.5,4.022,4.022,0,0,0-3.117,1.51Z" transform="translate(-1391.387 -1407.697)" fill="#fff"/>
        <path id="Path_867" data-name="Path 867" d="M1385.378,1414.006c-.024-.024-3.548-3.093-4.339-3.692a2.221,2.221,0,0,0-.983-.479,1.1,1.1,0,0,0-.479.048,4.449,4.449,0,0,0-1.295.767,3.444,3.444,0,0,1-1.247.767,1.9,1.9,0,0,1-1.367-.216.622.622,0,0,1-.24-.264.435.435,0,0,1,.12-.455l.959-1.055.336-.336c-.312.048-.6.12-.887.192a4.089,4.089,0,0,1-1.031.192,8.039,8.039,0,0,1-1.055-.168,16.207,16.207,0,0,1-2.8-1.007,6.235,6.235,0,0,0-2.565,3.716c.192.048.527.144.647.168,3.117.7,4.076,1.414,4.268,1.558a1,1,0,0,1,.767-.336,1.044,1.044,0,0,1,.839.432,1.155,1.155,0,0,1,.743-.264,1.62,1.62,0,0,1,.456.072,1,1,0,0,1,.623.575,1.144,1.144,0,0,1,.432-.1,1.51,1.51,0,0,1,.527.12,1.124,1.124,0,0,1,.623,1.247h.12a1.238,1.238,0,0,1,1.247,1.247,1.139,1.139,0,0,1-.144.575,2.074,2.074,0,0,0,1.079.288c.336-.048.455-.144.5-.216.024-.048.072-.1.024-.144l-.887-.983s-.144-.144-.1-.192.144.024.216.072c.456.384.983.935.983.935a.41.41,0,0,0,.24.12,1,1,0,0,0,.7-.168c.048-.048.12-.1.144-.144a.476.476,0,0,0-.024-.575l-1.031-1.151s-.144-.144-.1-.192.144.024.216.072c.336.264.791.743,1.223,1.175a.818.818,0,0,0,.983-.024.683.683,0,0,0,.36-.647.814.814,0,0,0-.216-.432l-1.391-1.415s-.144-.12-.1-.192c.048-.048.144.024.216.072.456.384,1.654,1.486,1.654,1.486a.88.88,0,0,0,.959-.024.587.587,0,0,0,.312-.5A.685.685,0,0,0,1385.378,1414.006Z" transform="translate(-1368.5 -1408.155)" fill="#fff"/>
        <path id="Path_868" data-name="Path 868" d="M1394.331,1433.062a1.621,1.621,0,0,0-.479.12c-.024,0,0-.1.024-.144s.312-.911-.384-1.223a.776.776,0,0,0-.959.144c-.024.024-.048.024-.048,0a.757.757,0,0,0-.551-.719,1.049,1.049,0,0,0-1.2.431.77.77,0,1,0-.767.863.7.7,0,0,0,.527-.216v.024a1,1,0,0,0,.623,1.151.746.746,0,0,0,.743-.12c.072-.048.072-.024.072.024-.024.168,0,.551.551.767a.658.658,0,0,0,.791-.144c.072-.072.1-.048.1.048a.96.96,0,1,0,.959-1.007Z" transform="translate(-1384.237 -1425.413)" fill="#fff"/>
      </g>
      <path id="Path_869" data-name="Path 869" d="M1385.218,1412.05c-1.079-.935-3.572-3.117-4.268-3.62a2.462,2.462,0,0,0-.887-.5,1.485,1.485,0,0,0-.983.024,4.824,4.824,0,0,0-1.295.815l-.024.024a3.435,3.435,0,0,1-1.1.7,2.377,2.377,0,0,1-.408.048,1.083,1.083,0,0,1-.767-.24c-.024-.024,0-.072.048-.12l.959-1.031a3.977,3.977,0,0,1,3.069-1.486h.072a5.912,5.912,0,0,1,2.134.5,6.694,6.694,0,0,0,2.9.7,7.853,7.853,0,0,0,3.231-.772c-.12-.1-.272-.227-.391-.323a7.035,7.035,0,0,1-2.839.64,6.158,6.158,0,0,1-2.709-.647,6,6,0,0,0-2.325-.551h-.1a3.888,3.888,0,0,0-2.637.935,5.175,5.175,0,0,0-1.319.24,3.51,3.51,0,0,1-.935.168h-.36a16.373,16.373,0,0,1-3.39-.96c-.144.1-.238.192-.382.288a17.885,17.885,0,0,0,3.652,1.08c.144,0,.312.024.48.024a4.077,4.077,0,0,0,1.055-.192c.216-.048.432-.12.647-.168l-.192.192-.959,1.055a.511.511,0,0,0-.144.527.96.96,0,0,0,.264.288,2.178,2.178,0,0,0,1.031.264,2.115,2.115,0,0,0,.407-.048,3.554,3.554,0,0,0,1.271-.791,4.617,4.617,0,0,1,1.247-.767,1.856,1.856,0,0,1,.36-.048h.1a1.84,1.84,0,0,1,.959.456c.791.6,4.315,3.668,4.339,3.692a.742.742,0,0,1,.216.527.607.607,0,0,1-.288.456.848.848,0,0,1-.455.144.76.76,0,0,1-.408-.12s-1.223-1.1-1.654-1.486a.331.331,0,0,0-.216-.12.125.125,0,0,0-.1.048c-.072.1,0,.216.1.288l1.414,1.414a.732.732,0,0,1,.192.384.626.626,0,0,1-.336.575.844.844,0,0,1-.5.168.8.8,0,0,1-.408-.12l-.216-.192a11.668,11.668,0,0,0-1.031-.959c-.072-.048-.144-.12-.216-.12a.1.1,0,0,0-.1.048c-.024.024-.048.1.024.216a.179.179,0,0,0,.072.072l1.031,1.151s.216.264.024.479l-.048.048-.1.1a.826.826,0,0,1-.5.168h-.144a.452.452,0,0,1-.216-.1,11.7,11.7,0,0,0-1.007-.935.3.3,0,0,0-.192-.1.181.181,0,0,0-.1.048c-.072.1.048.24.1.288l.887.959a.185.185,0,0,1-.024.072c-.024.048-.144.144-.455.192h-.12a2.037,2.037,0,0,1-.863-.264,1.424,1.424,0,0,0,.12-.551,1.289,1.289,0,0,0-1.295-1.295h-.048a1.142,1.142,0,0,0-.671-1.223,1.522,1.522,0,0,0-.551-.12,1.21,1.21,0,0,0-.407.072,1.133,1.133,0,0,0-.647-.552,1.669,1.669,0,0,0-.479-.072,1.131,1.131,0,0,0-.719.24,1.109,1.109,0,0,0-1.63-.1,11.579,11.579,0,0,0-4.243-1.558,4.7,4.7,0,0,1-.647-.192c-.024.144-.048.312-.072.479,0,0,.527.12.647.144a11.221,11.221,0,0,1,4.1,1.462,1.354,1.354,0,0,0-.072.432,1.1,1.1,0,0,0,1.1,1.1.666.666,0,0,0,.216-.024,1.262,1.262,0,0,0,.839.959,1.2,1.2,0,0,0,.384.072,1.076,1.076,0,0,0,.264-.024,1.1,1.1,0,0,0,.7.647.942.942,0,0,0,.432.1.766.766,0,0,0,.336-.072,1.307,1.307,0,0,0,1.2.815,1.251,1.251,0,0,0,.935-.408,2.4,2.4,0,0,0,1.1.336h.168a1,1,0,0,0,.743-.359c.024-.024.024-.048.048-.072a1.459,1.459,0,0,0,.359.048,1.116,1.116,0,0,0,.719-.264.851.851,0,0,0,.408-.623.812.812,0,0,0,.24.024,1.3,1.3,0,0,0,.743-.24,1.069,1.069,0,0,0,.527-.935.817.817,0,0,0,.24.024,1.249,1.249,0,0,0,.7-.216,1,1,0,0,0,.479-.767,1.14,1.14,0,0,0-.144-.623,29.476,29.476,0,0,1,4.583-1.441,1.715,1.715,0,0,0-.051-.491A24.452,24.452,0,0,0,1385.218,1412.05Zm-6.929,4a.9.9,0,0,1-.887-.863c0-.048,0-.144-.1-.144-.048,0-.072.024-.12.048a.608.608,0,0,1-.432.192.64.64,0,0,1-.288-.072c-.5-.216-.527-.552-.5-.7,0-.048,0-.072-.024-.1l-.024-.024h-.024c-.024,0-.048,0-.1.048a.775.775,0,0,1-.432.144.85.85,0,0,1-.24-.048.9.9,0,0,1-.575-1.079c0-.048,0-.072-.024-.1l-.048-.048-.048.048a.761.761,0,0,1-.479.192.7.7,0,1,1,0-1.391.718.718,0,0,1,.7.6l.024.192.1-.168a.923.923,0,0,1,.815-.432,1.673,1.673,0,0,1,.312.048.675.675,0,0,1,.479.647c0,.1.072.1.072.1.024,0,.072-.024.072-.048a.706.706,0,0,1,.5-.216.822.822,0,0,1,.384.1c.647.288.36,1.1.36,1.127-.048.144-.072.192,0,.24h.048a.258.258,0,0,0,.12-.024,1.388,1.388,0,0,1,.336-.072.9.9,0,0,1,.887.887A.857.857,0,0,1,1378.289,1416.053Z" transform="translate(-1.369 -7.45)" fill="#184092"/>
    </g>
  </g>
</svg>
