<svg xmlns="http://www.w3.org/2000/svg" width="32" height="32" viewBox="0 0 32 32">
  <g id="ruido-ovnisa-icono-instagram-footer-desktop" transform="translate(-234 -3258)">
    <circle id="Ellipse_28" data-name="Ellipse 28" cx="16" cy="16" r="16" transform="translate(234 3258)" fill="#fff"/>
    <g id="Group_62" data-name="Group 62" transform="translate(243 3267)">
      <path id="Path_825" data-name="Path 825" d="M4,4,4,7.5A3.5,3.5,0,0,1,7.5,4h7A3.5,3.5,0,0,1,18,7.5v7A3.5,3.5,0,0,1,14.5,18h-7A3.5,3.5,0,0,1,4,14.5Z" transform="translate(-4 -4)" fill="#184092"/>
      <path id="Path_826" data-name="Path 826" d="M11.625,11.625,9,11.625A2.625,2.625,0,1,0,11.625,9,2.625,2.625,0,0,0,9,11.625" transform="translate(-4.625 -4.625)" fill="#fff"/>
      <path id="Path_827" data-name="Path 827" d="M16.5,7.5v.009" transform="translate(-5.563 -4.437)" fill="#fff" stroke="#fff" stroke-linecap="round" stroke-linejoin="round" stroke-width="1.5"/>
    </g>
  </g>
</svg>
