<svg xmlns="http://www.w3.org/2000/svg" width="18.645" height="25" viewBox="0 0 18.645 25">
  <g id="ruido-ovnisa-icono-ubicacion-footer-desktop" transform="translate(-37.747)">
    <path id="Path_873" data-name="Path 873" d="M47.07,0a9.335,9.335,0,0,0-9.323,9.326c0,7.662,8.395,15.143,8.752,15.458a.863.863,0,0,0,1.141,0c.357-.315,8.752-7.8,8.752-15.458A9.335,9.335,0,0,0,47.07,0Zm0,22.954c-1.856-1.8-7.6-7.831-7.6-13.627a7.6,7.6,0,1,1,15.192,0C54.666,15.123,48.926,21.155,47.07,22.954Z" fill="#fff"/>
    <path id="Path_874" data-name="Path 874" d="M101.542,59.183a4.345,4.345,0,1,0,4.316,4.345A4.335,4.335,0,0,0,101.542,59.183Zm0,6.963a2.618,2.618,0,1,1,2.59-2.618A2.607,2.607,0,0,1,101.542,66.146Z" transform="translate(-54.472 -54.201)" fill="#fff"/>
  </g>
</svg>
