<svg id="ruido-ovnisa-logo-footer-desktop" xmlns="http://www.w3.org/2000/svg" width="199.501" height="59.995" viewBox="0 0 199.501 59.995">
  <g id="Capa_1" data-name="Capa 1">
    <path id="Path_803" data-name="Path 803" d="M56.186,37.178c-7.066,0-11.966-5.433-11.966-13.466C44.22,15.263,49.4,9.73,56.5,9.73s11.982,5.533,12,13.432c0,9.1-5.533,14-12.282,14.016Zm.15-2.8c5.45,0,8.516-5,8.5-11.066,0-5.283-2.766-10.8-8.483-10.782S47.8,17.863,47.8,23.629s3.1,10.749,8.5,10.749Z" transform="translate(29.474 6.485)" fill="#fff"/>
    <path id="Path_804" data-name="Path 804" d="M68.513,36.531,59.73,10h3.783l4.15,13.1c1.117,3.583,2.1,6.849,2.866,10h0c.75-3.066,1.8-6.416,3.016-9.9L78.062,10h3.666L72.262,36.665Z" transform="translate(39.812 6.665)" fill="#fff"/>
    <path id="Path_805" data-name="Path 805" d="M74.68,36.538V9.973h3.783l8.416,13.4A70.121,70.121,0,0,1,91.612,32h.117c-.317-3.533-.4-6.766-.4-10.866V9.94h3.233V36.6h-3.4L82.713,23.039a74.389,74.389,0,0,1-5-8.866H77.6c.2,3.333.25,6.533.25,10.949V36.538Z" transform="translate(49.777 6.625)" fill="#fff"/>
    <path id="Path_806" data-name="Path 806" d="M93.646,9.937V36.5H90.23V9.92Z" transform="translate(60.142 6.612)" fill="#fff"/>
    <path id="Path_807" data-name="Path 807" d="M96.027,32.527a11.666,11.666,0,0,0,6.116,1.667c3.516,0,5.55-1.833,5.55-4.55,0-2.45-1.417-3.9-5-5.233-4.333-1.567-7.033-3.85-7.033-7.566,0-4.133,3.333-7.216,8.6-7.233a12,12,0,0,1,5.833,1.3l-.95,2.8a9.816,9.816,0,0,0-5-1.25c-3.633,0-5,2.166-5,3.983,0,2.483,1.667,3.7,5.283,5.116,4.5,1.767,6.666,3.9,6.666,7.8s-2.983,7.7-9.249,7.7a13.5,13.5,0,0,1-6.783-1.667Z" transform="translate(63.361 6.403)" fill="#fff"/>
    <path id="Path_808" data-name="Path 808" d="M112.659,28.129l-2.75,8.333h-3.55l9-26.581h4.133l9.116,26.565h-3.683l-2.85-8.333Zm8.716-2.683L118.709,17.8c-.55-1.667-.95-3.333-1.333-4.85h-.133c-.35,1.533-.783,3.183-1.283,4.8l-2.6,7.7Z" transform="translate(70.893 6.585)" fill="#fff"/>
    <path id="Path_809" data-name="Path 809" d="M29.805,40.662,19.123,30.179a1.267,1.267,0,0,1-2.366-.667,1.25,1.25,0,0,1,1.267-1.267,1.283,1.283,0,0,1,1.183.767L30.655,18.68H22.573l-7.883,7.2a4.733,4.733,0,0,0-.15,7.466l7.549,7.416Z" transform="translate(8.525 12.451)" fill="#fff"/>
    <path id="Path_810" data-name="Path 810" d="M29.819,25.612,19.153,15.129a1.3,1.3,0,0,1-1.1.617,1.283,1.283,0,1,1,1.183-1.783L30.685,3.63H22.536L14.67,10.746a4.733,4.733,0,0,0-.15,7.466l7.549,7.416Z" transform="translate(8.512 2.42)" fill="#fff"/>
    <path id="Path_811" data-name="Path 811" d="M6.367,33.222,17.032,22.706a1.25,1.25,0,0,0,1.083.617,1.283,1.283,0,1,0,0-2.566,1.233,1.233,0,0,0-1.167.783L5.45,11.24H13.6l7.883,7.066a4.75,4.75,0,0,1,.233,7.533l-7.533,7.433Z" transform="translate(3.633 7.492)" fill="#fff"/>
    <path id="Path_812" data-name="Path 812" d="M20.517,33.2,31.166,22.686a1.3,1.3,0,0,0,1.1.617A1.283,1.283,0,0,0,33.532,22a1.267,1.267,0,0,0-1.283-1.267,1.283,1.283,0,0,0-1.167.767L19.6,11.22h8.149l7.883,7.066a4.75,4.75,0,0,1,.183,7.483l-7.549,7.416Z" transform="translate(13.064 7.479)" fill="#fff"/>
    <path id="Path_813" data-name="Path 813" d="M30,0A30,30,0,1,0,60,30,30,30,0,0,0,30,0Zm0,58.529A28.514,28.514,0,1,1,58.529,30,28.514,28.514,0,0,1,30,58.529Z" fill="#fff"/>
  </g>
</svg>
