<svg xmlns="http://www.w3.org/2000/svg" width="32" height="32" viewBox="0 0 32 32">
  <path id="ruido-ovnisa-footer-icono-linkedin-mobile" d="M16.4.4a16,16,0,1,0,16,16A16,16,0,0,0,16.4.4ZM12.483,23.032H9.243V12.605h3.24Zm-1.64-11.707a1.622,1.622,0,1,1,.042-3.24,1.623,1.623,0,1,1-.042,3.24ZM24.317,23.032h-3.24V17.253c0-1.345-.47-2.258-1.642-2.258a1.78,1.78,0,0,0-1.662,1.213,2.294,2.294,0,0,0-.108.81V23.03H14.423v-7.1c0-1.3-.042-2.39-.085-3.327h2.815l.148,1.448h.065a3.751,3.751,0,0,1,3.22-1.683c2.132,0,3.73,1.428,3.73,4.5v6.165Z" transform="translate(-0.4 -0.4)" fill="#fff"/>
</svg>
