<svg xmlns="http://www.w3.org/2000/svg" width="30.01" height="20.742" viewBox="0 0 30.01 20.742">
  <g id="ruido-ovnisa-nav-meli-desktop" transform="translate(-1366.3 -1396.4)">
    <path id="Path_864" data-name="Path 864" d="M1396.309,1406.2c0-5.39-6.714-9.8-15-9.8s-15,4.413-15,9.8v.567c0,5.737,5.863,10.371,15,10.371a22.246,22.246,0,0,0,6.967-1.046c5.023-1.645,8.037-5.2,8.037-9.325Z" transform="translate(0 0)" fill="#fff"/>
    <path id="Path_865" data-name="Path 865" d="M1397.212,1407.5c0,5.075-6.462,9.2-14.406,9.2s-14.406-4.129-14.406-9.2,6.462-9.2,14.406-9.2S1397.212,1402.429,1397.212,1407.5Z" transform="translate(-1.438 -1.301)" fill="#001748"/>
    <g id="Group_66" data-name="Group 66" transform="translate(1366.993 1399.961)">
      <path id="Path_866" data-name="Path 866" d="M1398.7,1411.039s-.158.157-.063.284a1.812,1.812,0,0,0,1.639.284,4.787,4.787,0,0,0,1.482-.946,5.642,5.642,0,0,1,1.7-1.072,2.026,2.026,0,0,1,1.229-.032,4.688,4.688,0,0,1,1.135.662c.977.725,4.949,4.193,5.642,4.792a34.71,34.71,0,0,1,6.336-2.049,7.8,7.8,0,0,0-2.995-4.729,9.361,9.361,0,0,1-7.818.126,7.668,7.668,0,0,0-2.963-.662,5.287,5.287,0,0,0-4.1,1.986Z" transform="translate(-1389.114 -1407.697)" fill="#001748"/>
      <path id="Path_867" data-name="Path 867" d="M1390.692,1415.8c-.032-.031-4.666-4.066-5.706-4.854a2.919,2.919,0,0,0-1.292-.63,1.444,1.444,0,0,0-.63.063,5.853,5.853,0,0,0-1.7,1.009,4.525,4.525,0,0,1-1.639,1.009,2.491,2.491,0,0,1-1.8-.284.816.816,0,0,1-.315-.347.571.571,0,0,1,.158-.6l1.261-1.387.441-.441c-.41.063-.788.157-1.166.252a5.373,5.373,0,0,1-1.355.252,10.584,10.584,0,0,1-1.387-.221,21.324,21.324,0,0,1-3.688-1.324,8.2,8.2,0,0,0-3.373,4.886c.252.063.694.189.851.221,4.1.914,5.359,1.86,5.611,2.049a1.31,1.31,0,0,1,1.009-.441,1.373,1.373,0,0,1,1.1.568,1.519,1.519,0,0,1,.977-.347,2.126,2.126,0,0,1,.6.095,1.311,1.311,0,0,1,.82.756,1.506,1.506,0,0,1,.568-.126,1.983,1.983,0,0,1,.693.158,1.478,1.478,0,0,1,.82,1.639h.158a1.628,1.628,0,0,1,1.639,1.639,1.5,1.5,0,0,1-.189.757,2.726,2.726,0,0,0,1.419.378c.441-.063.6-.189.662-.284.032-.063.095-.126.032-.189l-1.166-1.292s-.189-.189-.126-.252.189.031.284.094c.6.5,1.292,1.229,1.292,1.229a.539.539,0,0,0,.315.157,1.313,1.313,0,0,0,.914-.22c.063-.063.158-.126.189-.189a.626.626,0,0,0-.031-.757l-1.355-1.513s-.189-.189-.126-.252.189.031.284.094c.441.347,1.04.977,1.608,1.545a1.076,1.076,0,0,0,1.292-.031.9.9,0,0,0,.473-.851,1.069,1.069,0,0,0-.284-.567l-1.828-1.86s-.189-.158-.126-.252c.063-.063.189.031.284.094.6.5,2.175,1.954,2.175,1.954a1.156,1.156,0,0,0,1.261-.031.772.772,0,0,0,.41-.662A.9.9,0,0,0,1390.692,1415.8Z" transform="translate(-1368.5 -1408.11)" fill="#001748"/>
      <path id="Path_868" data-name="Path 868" d="M1395.946,1433.711a2.134,2.134,0,0,0-.63.157c-.031,0,0-.126.032-.189s.41-1.2-.5-1.607a1.02,1.02,0,0,0-1.261.189c-.031.031-.063.031-.063,0a1,1,0,0,0-.725-.946,1.38,1.38,0,0,0-1.576.567,1.012,1.012,0,1,0-1.009,1.135.926.926,0,0,0,.694-.284v.032a1.312,1.312,0,0,0,.82,1.513.98.98,0,0,0,.977-.158c.094-.063.094-.032.094.031-.032.221,0,.725.725,1.009a.865.865,0,0,0,1.04-.189c.094-.095.126-.063.126.063a1.262,1.262,0,1,0,1.261-1.324Z" transform="translate(-1382.675 -1423.654)" fill="#001748"/>
    </g>
    <path id="Path_869" data-name="Path 869" d="M1390.607,1413.891c-1.418-1.229-4.7-4.1-5.611-4.76a3.234,3.234,0,0,0-1.166-.662,2.089,2.089,0,0,0-.567-.094,2.067,2.067,0,0,0-.725.126,6.341,6.341,0,0,0-1.7,1.072l-.031.031a4.514,4.514,0,0,1-1.45.914,3.133,3.133,0,0,1-.536.063,1.425,1.425,0,0,1-1.009-.315c-.031-.032,0-.095.063-.157l1.261-1.356a5.229,5.229,0,0,1,4.035-1.954h.095a7.777,7.777,0,0,1,2.805.662,8.8,8.8,0,0,0,3.814.914,10.327,10.327,0,0,0,4.248-1.016c-.158-.126-.357-.3-.515-.425a9.249,9.249,0,0,1-3.733.842,8.1,8.1,0,0,1-3.562-.851,7.89,7.89,0,0,0-3.058-.725h-.126a5.113,5.113,0,0,0-3.468,1.229,6.811,6.811,0,0,0-1.734.315,4.61,4.61,0,0,1-1.229.221h-.473a21.531,21.531,0,0,1-4.458-1.262c-.189.126-.313.252-.5.378a23.506,23.506,0,0,0,4.8,1.42c.189,0,.41.031.631.031a5.357,5.357,0,0,0,1.387-.252c.284-.063.567-.158.851-.22l-.252.252-1.261,1.387a.672.672,0,0,0-.189.694,1.259,1.259,0,0,0,.347.378,2.866,2.866,0,0,0,1.355.347,2.779,2.779,0,0,0,.536-.063,4.675,4.675,0,0,0,1.671-1.041,6.073,6.073,0,0,1,1.639-1.009,2.434,2.434,0,0,1,.473-.063h.126a2.42,2.42,0,0,1,1.261.6c1.04.788,5.674,4.823,5.706,4.854a.976.976,0,0,1,.284.694.8.8,0,0,1-.378.6,1.114,1.114,0,0,1-.6.189,1,1,0,0,1-.536-.157s-1.608-1.45-2.175-1.954a.436.436,0,0,0-.284-.158.166.166,0,0,0-.126.063c-.094.126,0,.284.126.378l1.86,1.86a.962.962,0,0,1,.252.5.823.823,0,0,1-.442.757,1.11,1.11,0,0,1-.662.221,1.059,1.059,0,0,1-.536-.158l-.284-.252a15.386,15.386,0,0,0-1.355-1.261c-.095-.063-.189-.158-.284-.158a.126.126,0,0,0-.126.063c-.031.031-.063.126.031.284a.238.238,0,0,0,.095.095l1.356,1.513s.283.347.031.63l-.063.063-.126.126a1.087,1.087,0,0,1-.662.22h-.189a.593.593,0,0,1-.283-.126,15.357,15.357,0,0,0-1.324-1.229.389.389,0,0,0-.252-.126.238.238,0,0,0-.126.063c-.095.126.063.315.126.378l1.166,1.261a.242.242,0,0,1-.032.094c-.031.063-.189.189-.6.252h-.158a2.676,2.676,0,0,1-1.134-.347,1.876,1.876,0,0,0,.157-.725,1.7,1.7,0,0,0-1.7-1.7h-.063a1.5,1.5,0,0,0-.883-1.607,2,2,0,0,0-.725-.157,1.594,1.594,0,0,0-.536.094,1.49,1.49,0,0,0-.851-.725,2.2,2.2,0,0,0-.631-.094,1.488,1.488,0,0,0-.946.315,1.459,1.459,0,0,0-2.144-.126c-.347-.284-1.765-1.167-5.579-2.049a6.208,6.208,0,0,1-.851-.252c-.031.189-.063.41-.094.631,0,0,.693.157.851.189,3.877.851,5.17,1.765,5.391,1.923a1.775,1.775,0,0,0-.095.568,1.447,1.447,0,0,0,1.45,1.45.874.874,0,0,0,.284-.031,1.661,1.661,0,0,0,1.1,1.261,1.568,1.568,0,0,0,.5.094,1.01,1.01,0,0,1,1.261.82,1.238,1.238,0,0,0,.567.126,1,1,0,0,0,.441-.095,1.718,1.718,0,0,0,1.576,1.072,1.644,1.644,0,0,0,1.229-.536,3.155,3.155,0,0,0,1.45.441h.221a1.316,1.316,0,0,0,.977-.473c.031-.031.031-.063.063-.094a1.925,1.925,0,0,0,.473.063,1.468,1.468,0,0,0,.946-.347,1.119,1.119,0,0,0,.536-.82,1.07,1.07,0,0,0,.315.031,1.712,1.712,0,0,0,.977-.315,1.405,1.405,0,0,0,.693-1.229,1.074,1.074,0,0,0,.315.031,1.645,1.645,0,0,0,.915-.284,1.319,1.319,0,0,0,.63-1.009,1.5,1.5,0,0,0-.189-.82,38.75,38.75,0,0,1,6.026-1.895,2.253,2.253,0,0,0-.067-.646A32.164,32.164,0,0,0,1390.607,1413.891Zm-9.11,5.264a1.178,1.178,0,0,1-1.166-1.135c0-.063,0-.189-.126-.189-.063,0-.094.032-.157.063a.8.8,0,0,1-.568.252.844.844,0,0,1-.378-.094c-.662-.284-.694-.725-.662-.914,0-.063,0-.094-.032-.126l-.031-.031h-.031c-.031,0-.063,0-.126.063a1.017,1.017,0,0,1-.567.189,1.124,1.124,0,0,1-.315-.063,1.189,1.189,0,0,1-.757-1.418c0-.063,0-.095-.031-.126l-.063-.063-.063.063a1,1,0,0,1-.63.252.914.914,0,1,1,0-1.828.944.944,0,0,1,.914.788l.032.252.126-.221a1.215,1.215,0,0,1,1.072-.567,2.195,2.195,0,0,1,.41.063.888.888,0,0,1,.63.851c0,.126.095.126.095.126.031,0,.095-.032.095-.063a.927.927,0,0,1,.662-.284,1.084,1.084,0,0,1,.5.126c.851.378.473,1.45.473,1.481-.063.189-.095.252,0,.315h.063a.337.337,0,0,0,.158-.032,1.835,1.835,0,0,1,.441-.094,1.184,1.184,0,0,1,1.166,1.166A1.127,1.127,0,0,1,1381.5,1419.156Z" transform="translate(-1.233 -6.71)" fill="#fff"/>
  </g>
</svg>
