<svg id="ruido-ovnisa-nav-logo-desktop" xmlns="http://www.w3.org/2000/svg" width="214.738" height="64.577" viewBox="0 0 214.738 64.577">
  <g id="Capa_1" data-name="Capa 1">
    <path id="Path_803" data-name="Path 803" d="M57.1,39.274c-7.606,0-12.88-5.848-12.88-14.494,0-9.095,5.579-15.05,13.22-15.05s12.9,5.955,12.915,14.458c0,9.794-5.955,15.068-13.22,15.086Zm.161-3.014c5.866,0,9.166-5.381,9.148-11.911,0-5.686-2.978-11.624-9.131-11.606s-9.2,5.74-9.2,11.947,3.337,11.57,9.148,11.57Z" transform="translate(35.103 7.724)" fill="#fff"/>
    <path id="Path_804" data-name="Path 804" d="M69.183,38.558,59.73,10H63.8l4.467,14.1c1.2,3.857,2.26,7.373,3.085,10.763h0c.807-3.3,1.937-6.906,3.247-10.655L79.462,10h3.946L73.219,38.7Z" transform="translate(47.415 7.938)" fill="#fff"/>
    <path id="Path_805" data-name="Path 805" d="M74.68,38.569V9.976h4.072L87.811,24.4a75.476,75.476,0,0,1,5.094,9.292h.126c-.341-3.8-.43-7.283-.43-11.7V9.94h3.48v28.7H92.421l-9.095-14.6A80.074,80.074,0,0,1,77.945,14.5h-.126c.215,3.588.269,7.032.269,11.785V38.569Z" transform="translate(59.282 7.891)" fill="#fff"/>
    <path id="Path_806" data-name="Path 806" d="M93.907,9.938V38.531H90.23V9.92Z" transform="translate(71.626 7.875)" fill="#fff"/>
    <path id="Path_807" data-name="Path 807" d="M96.1,34.278a12.557,12.557,0,0,0,6.583,1.794c3.785,0,5.973-1.973,5.973-4.9,0-2.637-1.525-4.2-5.381-5.633-4.664-1.686-7.57-4.144-7.57-8.144,0-4.449,3.588-7.767,9.256-7.785a12.916,12.916,0,0,1,6.278,1.4l-1.023,3.014a10.566,10.566,0,0,0-5.381-1.345c-3.91,0-5.381,2.332-5.381,4.287,0,2.673,1.794,3.982,5.686,5.507,4.843,1.9,7.175,4.2,7.175,8.4s-3.211,8.287-9.956,8.287a14.53,14.53,0,0,1-7.3-1.794Z" transform="translate(75.46 7.626)" fill="#fff"/>
    <path id="Path_808" data-name="Path 808" d="M113.141,29.522l-2.96,8.969H106.36L116.047,9.88H120.5l9.812,28.593h-3.964L123.276,29.5Zm9.382-2.888-2.87-8.234c-.592-1.794-1.023-3.588-1.435-5.22h-.143c-.377,1.65-.843,3.426-1.381,5.166l-2.8,8.287Z" transform="translate(84.43 7.843)" fill="#fff"/>
    <path id="Path_809" data-name="Path 809" d="M31.1,42.34l-11.5-11.283a1.363,1.363,0,0,1-2.547-.718,1.345,1.345,0,0,1,1.363-1.363A1.381,1.381,0,0,1,19.7,29.8L32.02,18.68h-8.7l-8.485,7.749a5.094,5.094,0,0,0-.161,8.036L22.8,42.448Z" transform="translate(10.153 14.828)" fill="#fff"/>
    <path id="Path_810" data-name="Path 810" d="M31.121,27.29,19.64,16.007a1.4,1.4,0,0,1-1.184.664,1.381,1.381,0,1,1,1.274-1.919L32.054,3.63H23.282l-8.467,7.66a5.094,5.094,0,0,0-.161,8.036l8.126,7.982Z" transform="translate(10.137 2.882)" fill="#fff"/>
    <path id="Path_811" data-name="Path 811" d="M6.437,34.9l11.48-11.319a1.345,1.345,0,0,0,1.166.664,1.381,1.381,0,1,0,0-2.762,1.327,1.327,0,0,0-1.256.843L5.45,11.24h8.772l8.485,7.606a5.112,5.112,0,0,1,.251,8.108l-8.108,8Z" transform="translate(4.326 8.922)" fill="#fff"/>
    <path id="Path_812" data-name="Path 812" d="M20.587,34.88,32.049,23.561a1.4,1.4,0,0,0,1.184.664,1.381,1.381,0,0,0,1.363-1.4,1.363,1.363,0,0,0-1.381-1.363,1.381,1.381,0,0,0-1.256.825L19.6,11.22h8.772l8.485,7.606a5.112,5.112,0,0,1,.2,8.054l-8.126,7.982Z" transform="translate(15.559 8.907)" fill="#fff"/>
    <path id="Path_813" data-name="Path 813" d="M32.289,0A32.289,32.289,0,1,0,64.577,32.289,32.289,32.289,0,0,0,32.289,0Zm0,63A30.692,30.692,0,1,1,63,32.295,30.692,30.692,0,0,1,32.289,63Z" fill="#fff"/>
  </g>
</svg>
