<svg id="ruido-ovnisa-nav-meli-mobile" xmlns="http://www.w3.org/2000/svg" width="23.823" height="16.466" viewBox="0 0 23.823 16.466">
  <path id="Path_864" data-name="Path 864" d="M1390.122,1404.182c0-4.279-5.33-7.782-11.911-7.782s-11.911,3.5-11.911,7.782v.45c0,4.554,4.654,8.233,11.911,8.233a17.66,17.66,0,0,0,5.531-.83c3.987-1.306,6.38-4.128,6.38-7.4Z" transform="translate(-1366.3 -1396.4)" fill="#fff"/>
  <path id="Path_865" data-name="Path 865" d="M1391.272,1405.607c0,4.029-5.13,7.307-11.436,7.307s-11.436-3.278-11.436-7.307,5.13-7.307,11.436-7.307S1391.272,1401.578,1391.272,1405.607Z" transform="translate(-1367.875 -1397.824)" fill="#13306e"/>
  <g id="Group_66" data-name="Group 66" transform="translate(0.551 2.827)">
    <path id="Path_866" data-name="Path 866" d="M1398.678,1410.35s-.125.125-.05.225a1.438,1.438,0,0,0,1.3.225,3.8,3.8,0,0,0,1.176-.751,4.481,4.481,0,0,1,1.351-.851,1.609,1.609,0,0,1,.976-.025,3.724,3.724,0,0,1,.9.525c.776.576,3.929,3.328,4.479,3.8a27.546,27.546,0,0,1,5.03-1.627,6.2,6.2,0,0,0-2.377-3.754,7.431,7.431,0,0,1-6.206.1,6.088,6.088,0,0,0-2.352-.525,4.2,4.2,0,0,0-3.253,1.577Z" transform="translate(-1391.071 -1407.697)" fill="#13306e"/>
    <path id="Path_867" data-name="Path 867" d="M1386.117,1414.255c-.025-.025-3.7-3.228-4.53-3.854a2.317,2.317,0,0,0-1.026-.5,1.146,1.146,0,0,0-.5.05,4.648,4.648,0,0,0-1.351.8,3.592,3.592,0,0,1-1.3.8,1.978,1.978,0,0,1-1.427-.225.648.648,0,0,1-.25-.275.454.454,0,0,1,.125-.475l1-1.1.35-.35c-.325.05-.625.125-.926.2a4.265,4.265,0,0,1-1.076.2,8.4,8.4,0,0,1-1.1-.175,16.93,16.93,0,0,1-2.928-1.051,6.509,6.509,0,0,0-2.677,3.879c.2.05.551.15.675.175,3.253.726,4.254,1.476,4.454,1.627a1.04,1.04,0,0,1,.8-.35,1.09,1.09,0,0,1,.876.451,1.2,1.2,0,0,1,.776-.276,1.687,1.687,0,0,1,.475.075,1.04,1.04,0,0,1,.651.6,1.193,1.193,0,0,1,.451-.1,1.571,1.571,0,0,1,.55.125,1.173,1.173,0,0,1,.651,1.3h.125a1.292,1.292,0,0,1,1.3,1.3,1.187,1.187,0,0,1-.15.6,2.164,2.164,0,0,0,1.126.3c.35-.05.475-.15.525-.225.025-.05.075-.1.025-.15l-.926-1.026s-.15-.15-.1-.2.15.025.225.075c.476.4,1.026.976,1.026.976s.05.075.25.125a1.042,1.042,0,0,0,.726-.175c.05-.05.125-.1.15-.15a.5.5,0,0,0-.025-.6l-1.076-1.2s-.15-.15-.1-.2.15.025.225.075c.35.275.826.776,1.276,1.226a.854.854,0,0,0,1.026-.025.713.713,0,0,0,.375-.676.849.849,0,0,0-.225-.45l-1.451-1.476s-.15-.125-.1-.2c.05-.05.15.025.225.075.475.4,1.727,1.551,1.727,1.551a.918.918,0,0,0,1-.025.613.613,0,0,0,.326-.525A.715.715,0,0,0,1386.117,1414.255Z" transform="translate(-1368.5 -1408.149)" fill="#13306e"/>
    <path id="Path_868" data-name="Path 868" d="M1394.555,1433.152a1.7,1.7,0,0,0-.5.125c-.025,0,0-.1.025-.15s.325-.951-.4-1.276a.81.81,0,0,0-1,.15c-.025.025-.05.025-.05,0a.79.79,0,0,0-.575-.751,1.1,1.1,0,0,0-1.251.45.8.8,0,1,0-.8.9.735.735,0,0,0,.551-.226v.025a1.042,1.042,0,0,0,.651,1.2.778.778,0,0,0,.776-.125c.075-.05.075-.025.075.025-.025.175,0,.576.575.8a.687.687,0,0,0,.826-.15c.075-.075.1-.05.1.05a1,1,0,1,0,1-1.051Z" transform="translate(-1384.02 -1425.168)" fill="#13306e"/>
  </g>
  <path id="Path_869" data-name="Path 869" d="M1385.967,1412.306c-1.126-.976-3.729-3.253-4.454-3.779a2.566,2.566,0,0,0-.926-.526,1.658,1.658,0,0,0-.45-.075,1.639,1.639,0,0,0-.575.1,5.034,5.034,0,0,0-1.352.851l-.025.025a3.586,3.586,0,0,1-1.151.726,2.488,2.488,0,0,1-.425.05,1.131,1.131,0,0,1-.8-.25c-.025-.025,0-.075.05-.125l1-1.076a4.152,4.152,0,0,1,3.2-1.551h.075a6.176,6.176,0,0,1,2.227.525,6.985,6.985,0,0,0,3.028.726,8.2,8.2,0,0,0,3.372-.806c-.125-.1-.284-.237-.409-.338a7.343,7.343,0,0,1-2.964.668,6.425,6.425,0,0,1-2.828-.676,6.266,6.266,0,0,0-2.427-.576h-.1a4.06,4.06,0,0,0-2.753.976,5.409,5.409,0,0,0-1.376.25,3.658,3.658,0,0,1-.976.175h-.375a17.086,17.086,0,0,1-3.539-1c-.15.1-.249.2-.4.3a18.659,18.659,0,0,0,3.812,1.127c.15,0,.326.025.5.025a4.254,4.254,0,0,0,1.1-.2c.225-.05.45-.125.676-.175l-.2.2-1,1.1a.533.533,0,0,0-.15.55,1,1,0,0,0,.275.3,2.275,2.275,0,0,0,1.076.275,2.2,2.2,0,0,0,.425-.05,3.71,3.71,0,0,0,1.326-.826,4.818,4.818,0,0,1,1.3-.8,1.931,1.931,0,0,1,.375-.05h.1a1.922,1.922,0,0,1,1,.475c.826.626,4.5,3.828,4.529,3.854a.775.775,0,0,1,.225.551.633.633,0,0,1-.3.475.884.884,0,0,1-.475.15.794.794,0,0,1-.425-.125s-1.276-1.151-1.727-1.551a.346.346,0,0,0-.225-.125.131.131,0,0,0-.1.05c-.075.1,0,.225.1.3l1.476,1.476a.764.764,0,0,1,.2.4.653.653,0,0,1-.351.6.881.881,0,0,1-.525.175.84.84,0,0,1-.425-.125l-.225-.2a12.23,12.23,0,0,0-1.076-1c-.075-.05-.15-.125-.225-.125a.1.1,0,0,0-.1.05c-.025.025-.05.1.025.225a.189.189,0,0,0,.075.075l1.076,1.2s.225.275.025.5l-.05.05-.1.1a.863.863,0,0,1-.526.175h-.15a.472.472,0,0,1-.225-.1,12.185,12.185,0,0,0-1.051-.976.309.309,0,0,0-.2-.1.189.189,0,0,0-.1.05c-.075.1.05.25.1.3l.926,1a.191.191,0,0,1-.025.075c-.025.05-.15.15-.475.2h-.125a2.125,2.125,0,0,1-.9-.275,1.492,1.492,0,0,0,.125-.576,1.346,1.346,0,0,0-1.351-1.351h-.05a1.191,1.191,0,0,0-.7-1.276,1.588,1.588,0,0,0-.575-.125,1.267,1.267,0,0,0-.425.075,1.183,1.183,0,0,0-.676-.576,1.748,1.748,0,0,0-.5-.075,1.18,1.18,0,0,0-.751.25,1.158,1.158,0,0,0-1.7-.1c-.275-.225-1.4-.926-4.429-1.627a4.949,4.949,0,0,1-.676-.2c-.025.15-.05.325-.075.5,0,0,.55.125.675.15a11.712,11.712,0,0,1,4.279,1.526,1.411,1.411,0,0,0-.075.45,1.149,1.149,0,0,0,1.151,1.151.7.7,0,0,0,.225-.025,1.318,1.318,0,0,0,.876,1,1.243,1.243,0,0,0,.4.075.8.8,0,0,1,1,.651.982.982,0,0,0,.45.1.8.8,0,0,0,.35-.075,1.364,1.364,0,0,0,1.251.851,1.306,1.306,0,0,0,.976-.425,2.505,2.505,0,0,0,1.151.35h.175a1.046,1.046,0,0,0,.776-.375c.025-.025.025-.05.05-.075a1.525,1.525,0,0,0,.375.05,1.165,1.165,0,0,0,.751-.275.888.888,0,0,0,.425-.651.849.849,0,0,0,.25.025,1.359,1.359,0,0,0,.776-.25,1.115,1.115,0,0,0,.55-.976.857.857,0,0,0,.25.025,1.306,1.306,0,0,0,.726-.225,1.047,1.047,0,0,0,.5-.8,1.191,1.191,0,0,0-.15-.651,30.767,30.767,0,0,1,4.784-1.5,1.791,1.791,0,0,0-.053-.512A25.524,25.524,0,0,0,1385.967,1412.306Zm-7.232,4.179a.935.935,0,0,1-.925-.9c0-.05,0-.151-.1-.151-.05,0-.075.025-.125.05a.634.634,0,0,1-.451.2.669.669,0,0,1-.3-.075c-.525-.225-.551-.576-.525-.726,0-.05,0-.075-.025-.1l-.025-.025h-.025c-.025,0-.05,0-.1.05a.808.808,0,0,1-.45.15.89.89,0,0,1-.25-.05.944.944,0,0,1-.6-1.126c0-.05,0-.075-.025-.1l-.05-.05-.05.05a.793.793,0,0,1-.5.2.726.726,0,1,1,0-1.451.749.749,0,0,1,.726.626l.025.2.1-.175a.964.964,0,0,1,.851-.451,1.735,1.735,0,0,1,.325.05.7.7,0,0,1,.5.676c0,.1.075.1.075.1.025,0,.075-.025.075-.05a.736.736,0,0,1,.525-.225.862.862,0,0,1,.4.1c.675.3.375,1.151.375,1.176-.05.15-.075.2,0,.25h.05a.267.267,0,0,0,.125-.026,1.463,1.463,0,0,1,.35-.075.94.94,0,0,1,.926.926A.9.9,0,0,1,1378.735,1416.485Z" transform="translate(-1367.65 -1403.747)" fill="#fff"/>
</svg>
