<svg xmlns="http://www.w3.org/2000/svg" width="17.804" height="17.775" viewBox="0 0 17.804 17.775">
  <g id="ruido-ovnisa-nav-whatsapp-desktop" transform="translate(-441.013 88.733)">
    <path id="Path_818" data-name="Path 818" d="M3,19.055l1.472-3.389A8.026,8.026,0,1,1,7.5,18.252l-4.5.8" transform="translate(439 -91)" fill="none" stroke="#fff" stroke-linecap="round" stroke-linejoin="round" stroke-width="1.5"/>
    <path id="Path_819" data-name="Path 819" d="M9,9.838a.446.446,0,1,0,.892,0V8.946a.446.446,0,1,0-.892,0v.892A4.459,4.459,0,0,0,13.459,14.3h.892a.446.446,0,0,0,0-.892h-.892a.446.446,0,1,0,0,.892" transform="translate(438.351 -91.593)" fill="none" stroke="#fff" stroke-linecap="round" stroke-linejoin="round" stroke-width="1.5"/>
  </g>
</svg>
