<svg xmlns="http://www.w3.org/2000/svg" width="72.401" height="80.188" viewBox="0 0 72.401 80.188">
  <g id="ruido-ovnisa-empresa-icono-productos-desktop" transform="translate(-1336 -1654.905)">
    <path id="Path_921" data-name="Path 921" d="M67.126,18.225a8.455,8.455,0,0,1,4.275,7.4v27.68a8.454,8.454,0,0,1-4.4,7.4L41.35,76.936a8.622,8.622,0,0,1-8.3,0L7.4,60.71a8.455,8.455,0,0,1-4.4-7.4V25.624a8.448,8.448,0,0,1,4.4-7.4L33.051,3.1a8.854,8.854,0,0,1,8.55,0l25.65,15.124h-.125Z" transform="translate(1335 1655)" fill="none" stroke="#fff" stroke-linecap="round" stroke-linejoin="round" stroke-width="4"/>
    <path id="Path_922" data-name="Path 922" d="M36.5,14.8a3.806,3.806,0,0,1,1.9,3.329V30.584a3.814,3.814,0,0,1-1.957,3.333l-11.4,7.3a3.8,3.8,0,0,1-3.686,0l-11.4-7.3A3.8,3.8,0,0,1,8,30.588V18.131A3.819,3.819,0,0,1,9.953,14.8L21.353,8a3.888,3.888,0,0,1,3.8,0l11.4,6.8H36.5Z" transform="translate(1349 1670.401)" fill="none" stroke="#fff" stroke-linecap="round" stroke-linejoin="round" stroke-width="4"/>
  </g>
</svg>
