<svg id="ruido-ovnisa-contacto-icono-meli-desktop" xmlns="http://www.w3.org/2000/svg" width="42.528" height="42.528" viewBox="0 0 42.528 42.528">
  <ellipse id="Ellipse_29" data-name="Ellipse 29" cx="21.264" cy="21.264" rx="21.264" ry="21.264" transform="translate(0)" fill="#0f2b60"/>
  <g id="mercadolibre" transform="translate(6.308 10.719)">
    <path id="Path_864" data-name="Path 864" d="M1396.457,1406.252c0-5.417-6.747-9.852-15.078-9.852s-15.079,4.435-15.079,9.852v.57c0,5.766,5.892,10.422,15.079,10.422a22.359,22.359,0,0,0,7-1.051c5.048-1.653,8.077-5.225,8.077-9.371Z" transform="translate(-1366.3 -1396.4)" fill="#fff"/>
    <path id="Path_865" data-name="Path 865" d="M1397.354,1407.55c0,5.1-6.494,9.25-14.477,9.25s-14.477-4.15-14.477-9.25,6.494-9.25,14.477-9.25S1397.354,1402.45,1397.354,1407.55Z" transform="translate(-1367.735 -1397.698)" fill="#0f2b60"/>
    <g id="Group_66" data-name="Group 66" transform="translate(0.697 3.579)">
      <path id="Path_866" data-name="Path 866" d="M1398.7,1411.055s-.159.159-.064.285a1.821,1.821,0,0,0,1.647.285,4.806,4.806,0,0,0,1.489-.95,5.672,5.672,0,0,1,1.711-1.077,2.034,2.034,0,0,1,1.235-.032,4.7,4.7,0,0,1,1.141.665c.982.729,4.974,4.213,5.67,4.815a34.919,34.919,0,0,1,6.367-2.059,7.841,7.841,0,0,0-3.01-4.752,9.409,9.409,0,0,1-7.856.127,7.708,7.708,0,0,0-2.978-.665,5.315,5.315,0,0,0-4.118,2Z" transform="translate(-1389.068 -1407.697)" fill="#0f2b60"/>
      <path id="Path_867" data-name="Path 867" d="M1390.8,1415.839c-.032-.032-4.688-4.086-5.734-4.878a2.931,2.931,0,0,0-1.3-.634,1.452,1.452,0,0,0-.634.063,5.883,5.883,0,0,0-1.71,1.014,4.555,4.555,0,0,1-1.647,1.014,2.5,2.5,0,0,1-1.806-.285.823.823,0,0,1-.317-.348.576.576,0,0,1,.158-.6l1.267-1.394.443-.443c-.412.063-.792.158-1.172.253a5.406,5.406,0,0,1-1.362.253,10.6,10.6,0,0,1-1.394-.222,21.419,21.419,0,0,1-3.706-1.33,8.239,8.239,0,0,0-3.39,4.91c.253.063.7.19.855.222,4.118.919,5.385,1.869,5.639,2.059a1.317,1.317,0,0,1,1.014-.444,1.381,1.381,0,0,1,1.109.57,1.526,1.526,0,0,1,.982-.348,2.138,2.138,0,0,1,.6.095,1.317,1.317,0,0,1,.824.76,1.51,1.51,0,0,1,.57-.127,1.994,1.994,0,0,1,.7.158,1.486,1.486,0,0,1,.824,1.647h.158a1.636,1.636,0,0,1,1.647,1.647,1.505,1.505,0,0,1-.19.76,2.741,2.741,0,0,0,1.426.38c.443-.063.6-.19.665-.285.032-.064.1-.127.032-.19l-1.172-1.3s-.19-.19-.127-.254.19.032.285.1c.6.507,1.3,1.236,1.3,1.236a.543.543,0,0,0,.317.158,1.32,1.32,0,0,0,.919-.222c.063-.063.158-.126.19-.19a.629.629,0,0,0-.032-.76l-1.362-1.521s-.19-.19-.127-.253.19.032.285.095c.443.349,1.045.982,1.615,1.552a1.081,1.081,0,0,0,1.3-.032.9.9,0,0,0,.475-.855,1.076,1.076,0,0,0-.285-.57l-1.837-1.869s-.19-.158-.127-.253c.063-.063.19.031.285.095.6.507,2.186,1.964,2.186,1.964a1.162,1.162,0,0,0,1.267-.032.776.776,0,0,0,.412-.665A.9.9,0,0,0,1390.8,1415.839Z" transform="translate(-1368.5 -1408.109)" fill="#0f2b60"/>
      <path id="Path_868" data-name="Path 868" d="M1395.979,1433.724a2.141,2.141,0,0,0-.634.158c-.031,0,0-.127.032-.19s.412-1.2-.507-1.615a1.025,1.025,0,0,0-1.267.19c-.032.031-.063.031-.063,0a1,1,0,0,0-.729-.951,1.387,1.387,0,0,0-1.584.57,1.017,1.017,0,1,0-1.014,1.141.931.931,0,0,0,.7-.285v.032a1.319,1.319,0,0,0,.824,1.521.985.985,0,0,0,.982-.158c.1-.064.1-.032.1.031-.032.222,0,.729.729,1.014a.869.869,0,0,0,1.045-.19c.095-.1.127-.063.127.063a1.268,1.268,0,1,0,1.267-1.33Z" transform="translate(-1382.643 -1423.618)" fill="#0f2b60"/>
    </g>
    <path id="Path_869" data-name="Path 869" d="M1390.719,1413.929c-1.426-1.235-4.72-4.118-5.639-4.783a3.253,3.253,0,0,0-1.172-.665,1.962,1.962,0,0,0-1.3.031,6.37,6.37,0,0,0-1.711,1.077l-.032.031a4.54,4.54,0,0,1-1.457.919,3.149,3.149,0,0,1-.539.063,1.432,1.432,0,0,1-1.014-.317c-.031-.032,0-.1.064-.158l1.267-1.362a5.255,5.255,0,0,1,4.055-1.964h.1a7.807,7.807,0,0,1,2.819.665,8.848,8.848,0,0,0,3.833.919,10.377,10.377,0,0,0,4.269-1.021c-.158-.127-.359-.3-.517-.427a9.3,9.3,0,0,1-3.752.846,8.137,8.137,0,0,1-3.58-.856,7.935,7.935,0,0,0-3.073-.729h-.127a5.138,5.138,0,0,0-3.484,1.235,6.835,6.835,0,0,0-1.742.317,4.644,4.644,0,0,1-1.235.221h-.475a21.619,21.619,0,0,1-4.479-1.268c-.19.127-.315.253-.5.38a23.652,23.652,0,0,0,4.826,1.427c.19,0,.412.031.634.031a5.38,5.38,0,0,0,1.394-.253c.285-.063.57-.158.855-.222l-.253.253-1.267,1.394a.676.676,0,0,0-.19.7,1.27,1.27,0,0,0,.349.38,2.877,2.877,0,0,0,1.362.348,2.8,2.8,0,0,0,.539-.063,4.7,4.7,0,0,0,1.679-1.045,6.106,6.106,0,0,1,1.647-1.014,2.463,2.463,0,0,1,.475-.064h.126a2.433,2.433,0,0,1,1.267.6c1.046.792,5.7,4.846,5.734,4.878a.981.981,0,0,1,.285.7.8.8,0,0,1-.38.6,1.121,1.121,0,0,1-.6.19,1,1,0,0,1-.539-.158s-1.615-1.457-2.186-1.964a.438.438,0,0,0-.285-.158.166.166,0,0,0-.127.063c-.1.127,0,.285.127.38l1.869,1.869a.967.967,0,0,1,.254.507.827.827,0,0,1-.444.76,1.116,1.116,0,0,1-.665.222,1.062,1.062,0,0,1-.538-.159l-.285-.253a15.424,15.424,0,0,0-1.362-1.267c-.1-.063-.19-.158-.285-.158a.127.127,0,0,0-.127.063c-.031.032-.063.127.032.285a.238.238,0,0,0,.095.1l1.362,1.52s.285.348.031.634l-.063.063-.127.127a1.093,1.093,0,0,1-.665.222h-.19a.6.6,0,0,1-.285-.127,15.481,15.481,0,0,0-1.331-1.235.391.391,0,0,0-.253-.127.238.238,0,0,0-.126.064c-.1.126.063.317.126.38l1.172,1.267a.243.243,0,0,1-.032.095c-.032.063-.19.19-.6.253h-.158a2.69,2.69,0,0,1-1.14-.348,1.881,1.881,0,0,0,.158-.729,1.7,1.7,0,0,0-1.711-1.711h-.063a1.509,1.509,0,0,0-.887-1.615,2.014,2.014,0,0,0-.728-.158,1.6,1.6,0,0,0-.539.1,1.5,1.5,0,0,0-.855-.729,2.2,2.2,0,0,0-.634-.095,1.5,1.5,0,0,0-.951.317,1.466,1.466,0,0,0-2.154-.126c-.349-.285-1.774-1.172-5.607-2.059a6.188,6.188,0,0,1-.855-.253c-.031.19-.063.412-.095.634,0,0,.7.158.855.19,3.9.856,5.2,1.774,5.417,1.932a1.79,1.79,0,0,0-.095.57,1.453,1.453,0,0,0,1.457,1.457.883.883,0,0,0,.285-.031,1.669,1.669,0,0,0,1.109,1.267,1.579,1.579,0,0,0,.507.095,1.423,1.423,0,0,0,.348-.032,1.447,1.447,0,0,0,.919.856,1.245,1.245,0,0,0,.57.126,1.011,1.011,0,0,0,.443-.095,1.726,1.726,0,0,0,1.584,1.077,1.654,1.654,0,0,0,1.235-.538,3.173,3.173,0,0,0,1.457.443h.222a1.322,1.322,0,0,0,.982-.475c.032-.032.032-.064.063-.1a1.918,1.918,0,0,0,.475.063,1.475,1.475,0,0,0,.951-.349,1.125,1.125,0,0,0,.538-.824,1.075,1.075,0,0,0,.317.032,1.721,1.721,0,0,0,.982-.317,1.413,1.413,0,0,0,.7-1.236,1.083,1.083,0,0,0,.317.031,1.652,1.652,0,0,0,.919-.285,1.327,1.327,0,0,0,.633-1.014,1.507,1.507,0,0,0-.19-.824,38.921,38.921,0,0,1,6.056-1.9,2.26,2.26,0,0,0-.067-.649A32.323,32.323,0,0,0,1390.719,1413.929Zm-9.155,5.29a1.184,1.184,0,0,1-1.172-1.14c0-.064,0-.19-.127-.19-.063,0-.1.032-.158.063a.8.8,0,0,1-.57.253.844.844,0,0,1-.38-.1c-.665-.285-.7-.729-.665-.918,0-.063,0-.095-.032-.127l-.032-.032h-.031c-.032,0-.063,0-.127.064a1.023,1.023,0,0,1-.57.19,1.123,1.123,0,0,1-.317-.063,1.2,1.2,0,0,1-.76-1.425c0-.063,0-.1-.032-.127l-.063-.063-.064.063a1,1,0,0,1-.634.253.919.919,0,0,1,0-1.837.95.95,0,0,1,.919.792l.031.253.127-.222a1.218,1.218,0,0,1,1.077-.57,2.213,2.213,0,0,1,.412.063.893.893,0,0,1,.634.856c0,.127.095.127.095.127.031,0,.1-.032.1-.063a.932.932,0,0,1,.665-.285,1.086,1.086,0,0,1,.507.127c.855.38.475,1.457.475,1.489-.063.19-.095.253,0,.317h.063a.343.343,0,0,0,.158-.032,1.83,1.83,0,0,1,.443-.095,1.19,1.19,0,0,1,1.172,1.172A1.133,1.133,0,0,1,1381.563,1419.22Z" transform="translate(-1367.53 -1403.096)" fill="#fff"/>
  </g>
</svg>
