<svg id="ruido-ovnisa-contacto-icono-instagram-desktop" xmlns="http://www.w3.org/2000/svg" width="42.528" height="41.808" viewBox="0 0 42.528 41.808">
  <ellipse id="Ellipse_28" data-name="Ellipse 28" cx="21.264" cy="20.904" rx="21.264" ry="20.904" transform="translate(0 0)" fill="#11275a"/>
  <g id="Group_62" data-name="Group 62" transform="translate(11.799 11.772)">
    <path id="Path_825" data-name="Path 825" d="M4,4,4,8.625A4.625,4.625,0,0,1,8.625,4h9.249A4.625,4.625,0,0,1,22.5,8.625v9.249A4.625,4.625,0,0,1,17.874,22.5H8.625A4.625,4.625,0,0,1,4,17.874Z" transform="translate(-4 -4)" fill="#fff"/>
    <path id="Path_826" data-name="Path 826" d="M12.468,12.468,9,12.468A3.468,3.468,0,1,0,12.468,9,3.468,3.468,0,0,0,9,12.468" transform="translate(-3.219 -3.219)" fill="#0f2b60"/>
    <path id="Path_827" data-name="Path 827" d="M16.5,7.5v.012" transform="translate(-2.048 -3.453)" fill="#fff" stroke="#0f2b60" stroke-linecap="round" stroke-linejoin="round" stroke-width="1.5"/>
  </g>
</svg>
