<svg xmlns="http://www.w3.org/2000/svg" width="42.282" height="42.282" viewBox="0 0 42.282 42.282">
  <path id="ruido-ovnisa-contacto-icono-linkedin-desktop" d="M21.541.4A21.141,21.141,0,1,0,42.682,21.541,21.141,21.141,0,0,0,21.541.4ZM16.366,30.3H12.085V16.527h4.281ZM14.2,14.835a2.144,2.144,0,1,1,.055-4.281,2.145,2.145,0,1,1-.055,4.281ZM32,30.3H27.721V22.669c0-1.777-.621-2.984-2.169-2.984a2.352,2.352,0,0,0-2.2,1.6,3.03,3.03,0,0,0-.143,1.07V30.3H18.929V20.92c0-1.72-.055-3.158-.112-4.4h3.72l.2,1.914h.086a4.956,4.956,0,0,1,4.255-2.224C29.89,16.214,32,18.1,32,22.158V30.3Z" transform="translate(-0.4 -0.4)" fill="#0f2b60"/>
</svg>
